<svg width="24" height="24" viewBox="0 0 24 24" fill="none" xmlns="http://www.w3.org/2000/svg">
<path d="M13.7157 3.42135C15.6108 1.52622 18.6835 1.52622 20.5786 3.42135C22.4737 5.31649 22.4737 8.38912 20.5786 10.2843L10.2843 20.5786C8.38912 22.4737 5.31649 22.4737 3.42135 20.5786C1.52622 18.6835 1.52622 15.6108 3.42135 13.7157L13.7157 3.42135Z" fill="#F1E5A3"/>
<path fill-rule="evenodd" clip-rule="evenodd" d="M21.222 10.9276L10.9276 21.222C8.67716 23.4725 5.02842 23.4725 2.77795 21.222C0.527469 18.9715 0.527469 15.3228 2.77795 13.0723L13.0723 2.77795C15.3228 0.527469 18.9715 0.527469 21.222 2.77795C23.4725 5.02842 23.4725 8.67717 21.222 10.9276ZM20.5786 3.42134C18.6835 1.5262 15.6108 1.5262 13.7157 3.42134L3.42134 13.7157C1.5262 15.6108 1.5262 18.6835 3.42134 20.5786C5.31648 22.4737 8.38911 22.4737 10.2842 20.5786L20.5786 10.2842C22.4737 8.38911 22.4737 5.31648 20.5786 3.42134Z" fill="#C84B16"/>
<path fill-rule="evenodd" clip-rule="evenodd" d="M3.51999 20.6746C5.42165 22.4732 8.42164 22.4412 10.2842 20.5786L20.5786 10.2843C22.4737 8.38913 22.4737 5.3165 20.5786 3.42137C20.1434 2.98613 19.646 2.65085 19.1151 2.41553C19.1483 2.44695 19.1812 2.47893 19.2137 2.51146C21.1089 4.4066 21.1089 7.47923 19.2137 9.37437L8.91939 19.6687C7.45949 21.1286 5.30084 21.4639 3.51999 20.6746Z" fill="#CDBE68"/>
<path d="M3.42141 13.7157C1.52628 15.6109 1.52628 18.6835 3.42141 20.5787C5.31655 22.4738 8.38918 22.4738 10.2843 20.5787L15.4315 15.4315L8.56859 8.56857L3.42141 13.7157Z" fill="#FC7941"/>
<path fill-rule="evenodd" clip-rule="evenodd" d="M10.2843 20.5786C8.42167 22.4412 5.42168 22.4732 3.52002 20.6746C5.30087 21.4639 7.45952 21.1286 8.91942 19.6687L14.2941 14.2941L15.4314 15.4314L10.2843 20.5786Z" fill="#E76730"/>
<path d="M11.5884 17.378C11.5884 17.7548 11.2828 18.0604 10.9059 18.0604C10.529 18.0604 10.2235 17.7548 10.2235 17.378C10.2235 17.0011 10.529 16.6955 10.9059 16.6955C11.2828 16.6955 11.5884 17.0011 11.5884 17.378Z" fill="#C84B16"/>
<path d="M9.47324 19.675C9.47324 20.154 9.08496 20.5422 8.60599 20.5422C8.12702 20.5422 7.73874 20.154 7.73874 19.675C7.73874 19.196 8.12702 18.8077 8.60599 18.8077C9.08496 18.8077 9.47324 19.196 9.47324 19.675Z" fill="#C84B16"/>
<path d="M9.47322 17.5324C9.47322 17.824 9.23684 18.0604 8.94526 18.0604C8.65367 18.0604 8.4173 17.824 8.4173 17.5324C8.4173 17.2408 8.65367 17.0045 8.94526 17.0045C9.23684 17.0045 9.47322 17.2408 9.47322 17.5324Z" fill="#C84B16"/>
<path d="M7.02785 20.5422C7.02785 20.8338 6.79147 21.0702 6.49988 21.0702C6.2083 21.0702 5.97192 20.8338 5.97192 20.5422C5.97192 20.2507 6.2083 20.0143 6.49988 20.0143C6.79147 20.0143 7.02785 20.2507 7.02785 20.5422Z" fill="#C84B16"/>
<path d="M7.22688 18.7149C7.22688 19.0065 6.99051 19.2428 6.69892 19.2428C6.40734 19.2428 6.17096 19.0065 6.17096 18.7149C6.17096 18.4233 6.40734 18.1869 6.69892 18.1869C6.99051 18.1869 7.22688 18.4233 7.22688 18.7149Z" fill="#C84B16"/>
<path d="M5.32179 19.4863C5.32179 19.7779 5.08541 20.0143 4.79383 20.0143C4.50225 20.0143 4.26587 19.7779 4.26587 19.4863C4.26587 19.1948 4.50225 18.9584 4.79383 18.9584C5.08541 18.9584 5.32179 19.1948 5.32179 19.4863Z" fill="#C84B16"/>
<path d="M13.3399 16.1676C13.3399 16.4592 13.1035 16.6955 12.812 16.6955C12.5204 16.6955 12.284 16.4592 12.284 16.1676C12.284 15.876 12.5204 15.6396 12.812 15.6396C13.1035 15.6396 13.3399 15.876 13.3399 16.1676Z" fill="#C84B16"/>
<path fill-rule="evenodd" clip-rule="evenodd" d="M16.7535 3.63834C17.1 4.00224 17.086 4.57818 16.7221 4.92475L11.9451 9.47426C11.5812 9.82083 11.0053 9.80678 10.6587 9.44288C10.3121 9.07898 10.3262 8.50304 10.6901 8.15647L15.467 3.60697C15.8309 3.2604 16.4069 3.27444 16.7535 3.63834Z" fill="#FBF2C2"/>
<path fill-rule="evenodd" clip-rule="evenodd" d="M16.75 3.63471C17.0986 3.99669 17.0877 4.57271 16.7257 4.92128L15.1903 6.39987C14.8283 6.74844 14.2523 6.73757 13.9037 6.37559C13.5551 6.01361 13.566 5.4376 13.928 5.08903L15.4634 3.61044C15.8254 3.26187 16.4014 3.27274 16.75 3.63471Z" fill="white"/>
</svg>
