<svg width="243" height="42" viewBox="0 0 243 42" fill="none" xmlns="http://www.w3.org/2000/svg">
<path d="M57.28 29C57.12 29 56.976 28.944 56.848 28.832C56.736 28.72 56.68 28.576 56.68 28.4V12.8C56.68 12.624 56.736 12.48 56.848 12.368C56.976 12.256 57.12 12.2 57.28 12.2H59.872C60.128 12.2 60.32 12.272 60.448 12.416C60.592 12.544 60.68 12.648 60.712 12.728L64.936 20.312L69.16 12.728C69.208 12.648 69.288 12.544 69.4 12.416C69.528 12.272 69.728 12.2 70 12.2H72.568C72.744 12.2 72.888 12.256 73 12.368C73.128 12.48 73.192 12.624 73.192 12.8V28.4C73.192 28.576 73.128 28.72 73 28.832C72.888 28.944 72.744 29 72.568 29H69.712C69.536 29 69.384 28.944 69.256 28.832C69.144 28.72 69.088 28.576 69.088 28.4V19.4L66.376 24.416C66.312 24.56 66.216 24.688 66.088 24.8C65.96 24.912 65.784 24.968 65.56 24.968H64.312C64.088 24.968 63.912 24.912 63.784 24.8C63.656 24.688 63.552 24.56 63.472 24.416L60.76 19.4V28.4C60.76 28.576 60.704 28.72 60.592 28.832C60.48 28.944 60.336 29 60.16 29H57.28ZM76.8676 29C76.6916 29 76.5476 28.944 76.4356 28.832C76.3236 28.72 76.2676 28.576 76.2676 28.4V17.12C76.2676 16.96 76.3236 16.824 76.4356 16.712C76.5476 16.584 76.6916 16.52 76.8676 16.52H79.6276C79.8036 16.52 79.9476 16.584 80.0596 16.712C80.1716 16.824 80.2276 16.96 80.2276 17.12V18.08C80.6596 17.584 81.1716 17.2 81.7636 16.928C82.3716 16.656 83.0516 16.52 83.8036 16.52H84.8596C85.0196 16.52 85.1556 16.576 85.2676 16.688C85.3956 16.8 85.4596 16.944 85.4596 17.12V19.592C85.4596 19.752 85.3956 19.896 85.2676 20.024C85.1556 20.136 85.0196 20.192 84.8596 20.192H82.5316C81.8756 20.192 81.3636 20.376 80.9956 20.744C80.6436 21.096 80.4676 21.6 80.4676 22.256V28.4C80.4676 28.576 80.4036 28.72 80.2756 28.832C80.1636 28.944 80.0196 29 79.8436 29H76.8676ZM92.6472 29C92.4712 29 92.3272 28.944 92.2152 28.832C92.1032 28.72 92.0472 28.576 92.0472 28.4V12.8C92.0472 12.624 92.1032 12.48 92.2152 12.368C92.3272 12.256 92.4712 12.2 92.6472 12.2H99.3672C100.695 12.2 101.847 12.408 102.823 12.824C103.815 13.224 104.583 13.832 105.127 14.648C105.687 15.464 105.967 16.496 105.967 17.744C105.967 18.976 105.687 19.992 105.127 20.792C104.583 21.592 103.815 22.184 102.823 22.568C101.847 22.952 100.695 23.144 99.3672 23.144H96.5112V28.4C96.5112 28.576 96.4472 28.72 96.3192 28.832C96.2072 28.944 96.0632 29 95.8872 29H92.6472ZM96.4392 19.832H99.2472C99.9352 19.832 100.479 19.656 100.879 19.304C101.295 18.952 101.503 18.416 101.503 17.696C101.503 17.088 101.327 16.576 100.975 16.16C100.623 15.744 100.047 15.536 99.2472 15.536H96.4392V19.832ZM108.836 29C108.66 29 108.516 28.944 108.404 28.832C108.292 28.72 108.236 28.576 108.236 28.4V17.12C108.236 16.944 108.292 16.8 108.404 16.688C108.516 16.576 108.66 16.52 108.836 16.52H111.668C111.828 16.52 111.964 16.576 112.076 16.688C112.204 16.8 112.268 16.944 112.268 17.12V28.4C112.268 28.576 112.204 28.72 112.076 28.832C111.964 28.944 111.828 29 111.668 29H108.836ZM108.812 14.72C108.636 14.72 108.492 14.664 108.38 14.552C108.268 14.44 108.212 14.296 108.212 14.12V11.984C108.212 11.808 108.268 11.664 108.38 11.552C108.492 11.424 108.636 11.36 108.812 11.36H111.668C111.844 11.36 111.988 11.424 112.1 11.552C112.228 11.664 112.292 11.808 112.292 11.984V14.12C112.292 14.296 112.228 14.44 112.1 14.552C111.988 14.664 111.844 14.72 111.668 14.72H108.812ZM115.68 29C115.504 29 115.36 28.944 115.248 28.832C115.136 28.72 115.08 28.576 115.08 28.4V12.56C115.08 12.384 115.136 12.24 115.248 12.128C115.36 12.016 115.504 11.96 115.68 11.96H118.512C118.688 11.96 118.832 12.016 118.944 12.128C119.056 12.24 119.112 12.384 119.112 12.56V28.4C119.112 28.576 119.056 28.72 118.944 28.832C118.832 28.944 118.688 29 118.512 29H115.68ZM122.547 29C122.371 29 122.227 28.944 122.115 28.832C122.003 28.72 121.947 28.576 121.947 28.4V12.56C121.947 12.384 122.003 12.24 122.115 12.128C122.227 12.016 122.371 11.96 122.547 11.96H125.379C125.555 11.96 125.699 12.016 125.811 12.128C125.923 12.24 125.979 12.384 125.979 12.56V28.4C125.979 28.576 125.923 28.72 125.811 28.832C125.699 28.944 125.555 29 125.379 29H122.547ZM128.862 18.008C128.718 18.008 128.598 17.96 128.502 17.864C128.422 17.768 128.39 17.632 128.406 17.456L129.126 12.776C129.158 12.568 129.238 12.384 129.366 12.224C129.51 12.048 129.718 11.96 129.99 11.96H132.798C132.926 11.96 133.03 12.008 133.11 12.104C133.206 12.2 133.254 12.312 133.254 12.44C133.254 12.536 133.238 12.624 133.206 12.704L131.406 17.336C131.342 17.496 131.246 17.648 131.118 17.792C130.99 17.936 130.79 18.008 130.518 18.008H128.862ZM139.505 29.24C138.465 29.24 137.577 29.128 136.841 28.904C136.121 28.664 135.529 28.376 135.065 28.04C134.617 27.704 134.281 27.36 134.057 27.008C133.833 26.64 133.713 26.328 133.697 26.072C133.681 25.896 133.737 25.752 133.865 25.64C133.993 25.512 134.129 25.448 134.273 25.448H137.009C137.057 25.448 137.097 25.456 137.129 25.472C137.161 25.488 137.209 25.52 137.273 25.568C137.481 25.68 137.689 25.824 137.897 26C138.105 26.16 138.345 26.304 138.617 26.432C138.889 26.56 139.217 26.624 139.601 26.624C140.049 26.624 140.425 26.536 140.729 26.36C141.033 26.184 141.185 25.92 141.185 25.568C141.185 25.312 141.113 25.104 140.969 24.944C140.825 24.768 140.529 24.6 140.081 24.44C139.649 24.28 138.993 24.12 138.113 23.96C137.281 23.768 136.553 23.52 135.929 23.216C135.305 22.896 134.825 22.488 134.489 21.992C134.153 21.48 133.985 20.864 133.985 20.144C133.985 19.504 134.193 18.888 134.609 18.296C135.025 17.704 135.633 17.224 136.433 16.856C137.233 16.472 138.217 16.28 139.385 16.28C140.313 16.28 141.113 16.392 141.785 16.616C142.473 16.824 143.049 17.096 143.513 17.432C143.993 17.768 144.353 18.112 144.593 18.464C144.833 18.816 144.961 19.136 144.977 19.424C144.993 19.584 144.945 19.728 144.833 19.856C144.721 19.968 144.593 20.024 144.449 20.024H141.953C141.889 20.024 141.825 20.016 141.761 20C141.697 19.968 141.641 19.936 141.593 19.904C141.401 19.808 141.209 19.68 141.017 19.52C140.825 19.36 140.601 19.216 140.345 19.088C140.089 18.96 139.769 18.896 139.385 18.896C138.953 18.896 138.617 18.992 138.377 19.184C138.137 19.376 138.017 19.624 138.017 19.928C138.017 20.136 138.081 20.328 138.209 20.504C138.353 20.68 138.633 20.84 139.049 20.984C139.481 21.128 140.145 21.288 141.041 21.464C142.145 21.64 143.025 21.928 143.681 22.328C144.337 22.712 144.801 23.168 145.073 23.696C145.345 24.208 145.481 24.752 145.481 25.328C145.481 26.096 145.249 26.776 144.785 27.368C144.337 27.96 143.665 28.424 142.769 28.76C141.873 29.08 140.785 29.24 139.505 29.24ZM156.742 29C156.566 29 156.422 28.944 156.31 28.832C156.198 28.72 156.142 28.576 156.142 28.4V15.968H151.87C151.694 15.968 151.55 15.912 151.438 15.8C151.326 15.672 151.27 15.528 151.27 15.368V12.8C151.27 12.624 151.326 12.48 151.438 12.368C151.55 12.256 151.694 12.2 151.87 12.2H164.782C164.958 12.2 165.102 12.256 165.214 12.368C165.326 12.48 165.382 12.624 165.382 12.8V15.368C165.382 15.528 165.326 15.672 165.214 15.8C165.102 15.912 164.958 15.968 164.782 15.968H160.51V28.4C160.51 28.576 160.454 28.72 160.342 28.832C160.23 28.944 160.086 29 159.91 29H156.742ZM166.657 29C166.481 29 166.337 28.944 166.225 28.832C166.113 28.72 166.057 28.576 166.057 28.4V17.12C166.057 16.96 166.113 16.824 166.225 16.712C166.337 16.584 166.481 16.52 166.657 16.52H169.417C169.593 16.52 169.737 16.584 169.849 16.712C169.961 16.824 170.017 16.96 170.017 17.12V18.08C170.449 17.584 170.961 17.2 171.553 16.928C172.161 16.656 172.841 16.52 173.593 16.52H174.649C174.809 16.52 174.945 16.576 175.057 16.688C175.185 16.8 175.249 16.944 175.249 17.12V19.592C175.249 19.752 175.185 19.896 175.057 20.024C174.945 20.136 174.809 20.192 174.649 20.192H172.321C171.665 20.192 171.153 20.376 170.785 20.744C170.433 21.096 170.257 21.6 170.257 22.256V28.4C170.257 28.576 170.193 28.72 170.065 28.832C169.953 28.944 169.809 29 169.633 29H166.657ZM180.488 29.24C179.624 29.24 178.848 29.08 178.16 28.76C177.488 28.424 176.952 27.976 176.552 27.416C176.152 26.856 175.952 26.224 175.952 25.52C175.952 24.384 176.416 23.488 177.344 22.832C178.272 22.16 179.504 21.704 181.04 21.464L184.04 21.008V20.672C184.04 20.096 183.92 19.656 183.68 19.352C183.44 19.048 183 18.896 182.36 18.896C181.912 18.896 181.544 18.984 181.256 19.16C180.984 19.336 180.768 19.576 180.608 19.88C180.464 20.088 180.264 20.192 180.008 20.192H177.32C177.144 20.192 177.008 20.144 176.912 20.048C176.816 19.936 176.776 19.808 176.792 19.664C176.792 19.376 176.896 19.048 177.104 18.68C177.328 18.296 177.664 17.92 178.112 17.552C178.56 17.184 179.136 16.88 179.84 16.64C180.544 16.4 181.392 16.28 182.384 16.28C183.424 16.28 184.312 16.4 185.048 16.64C185.784 16.88 186.376 17.216 186.824 17.648C187.288 18.08 187.632 18.592 187.856 19.184C188.08 19.76 188.192 20.4 188.192 21.104V28.4C188.192 28.576 188.128 28.72 188 28.832C187.888 28.944 187.752 29 187.592 29H184.808C184.632 29 184.488 28.944 184.376 28.832C184.264 28.72 184.208 28.576 184.208 28.4V27.56C184 27.864 183.72 28.144 183.368 28.4C183.016 28.656 182.6 28.856 182.12 29C181.656 29.16 181.112 29.24 180.488 29.24ZM181.616 26.504C182.08 26.504 182.496 26.408 182.864 26.216C183.248 26.008 183.544 25.696 183.752 25.28C183.976 24.848 184.088 24.312 184.088 23.672V23.336L182.048 23.696C181.296 23.824 180.744 24.024 180.392 24.296C180.056 24.552 179.888 24.856 179.888 25.208C179.888 25.48 179.968 25.712 180.128 25.904C180.288 26.096 180.496 26.248 180.752 26.36C181.008 26.456 181.296 26.504 181.616 26.504ZM196.636 29.24C195.452 29.24 194.404 29.024 193.492 28.592C192.58 28.16 191.852 27.536 191.308 26.72C190.78 25.888 190.492 24.896 190.444 23.744C190.428 23.488 190.42 23.168 190.42 22.784C190.42 22.384 190.428 22.056 190.444 21.8C190.492 20.632 190.78 19.64 191.308 18.824C191.836 17.992 192.556 17.36 193.468 16.928C194.396 16.496 195.452 16.28 196.636 16.28C197.74 16.28 198.684 16.44 199.468 16.76C200.252 17.064 200.892 17.448 201.388 17.912C201.884 18.376 202.252 18.856 202.492 19.352C202.748 19.832 202.884 20.256 202.9 20.624C202.916 20.784 202.86 20.928 202.732 21.056C202.604 21.168 202.46 21.224 202.3 21.224H199.252C199.076 21.224 198.94 21.184 198.844 21.104C198.748 21.024 198.66 20.904 198.58 20.744C198.388 20.248 198.14 19.896 197.836 19.688C197.548 19.48 197.172 19.376 196.708 19.376C196.068 19.376 195.572 19.584 195.22 20C194.884 20.416 194.7 21.056 194.668 21.92C194.652 22.56 194.652 23.128 194.668 23.624C194.7 24.504 194.884 25.144 195.22 25.544C195.572 25.944 196.068 26.144 196.708 26.144C197.204 26.144 197.596 26.04 197.884 25.832C198.172 25.624 198.404 25.272 198.58 24.776C198.66 24.616 198.748 24.496 198.844 24.416C198.94 24.336 199.076 24.296 199.252 24.296H202.3C202.46 24.296 202.604 24.36 202.732 24.488C202.86 24.6 202.916 24.736 202.9 24.896C202.884 25.168 202.804 25.488 202.66 25.856C202.516 26.208 202.292 26.584 201.988 26.984C201.684 27.384 201.284 27.76 200.788 28.112C200.308 28.448 199.724 28.72 199.036 28.928C198.348 29.136 197.548 29.24 196.636 29.24ZM205.657 29C205.481 29 205.337 28.944 205.225 28.832C205.113 28.72 205.057 28.576 205.057 28.4V12.56C205.057 12.384 205.113 12.24 205.225 12.128C205.337 12.016 205.481 11.96 205.657 11.96H208.441C208.601 11.96 208.737 12.016 208.849 12.128C208.977 12.24 209.041 12.384 209.041 12.56V20.6L212.377 16.928C212.473 16.816 212.577 16.72 212.689 16.64C212.801 16.56 212.961 16.52 213.169 16.52H216.385C216.529 16.52 216.649 16.576 216.745 16.688C216.857 16.784 216.913 16.904 216.913 17.048C216.913 17.112 216.897 17.184 216.865 17.264C216.833 17.344 216.785 17.408 216.721 17.456L212.401 22.112L217.321 28.088C217.449 28.216 217.513 28.344 217.513 28.472C217.513 28.616 217.457 28.744 217.345 28.856C217.249 28.952 217.121 29 216.961 29H213.673C213.433 29 213.257 28.96 213.145 28.88C213.033 28.784 212.929 28.688 212.833 28.592L209.041 24.032V28.4C209.041 28.576 208.977 28.72 208.849 28.832C208.737 28.944 208.601 29 208.441 29H205.657ZM224.27 29.24C222.382 29.24 220.878 28.728 219.758 27.704C218.638 26.68 218.054 25.16 218.006 23.144C218.006 23.032 218.006 22.888 218.006 22.712C218.006 22.536 218.006 22.4 218.006 22.304C218.054 21.04 218.334 19.96 218.846 19.064C219.374 18.152 220.094 17.464 221.006 17C221.934 16.52 223.014 16.28 224.246 16.28C225.654 16.28 226.814 16.56 227.726 17.12C228.654 17.68 229.35 18.44 229.814 19.4C230.278 20.36 230.51 21.456 230.51 22.688V23.264C230.51 23.44 230.446 23.584 230.318 23.696C230.206 23.808 230.07 23.864 229.91 23.864H222.23C222.23 23.88 222.23 23.904 222.23 23.936C222.23 23.968 222.23 24 222.23 24.032C222.246 24.496 222.326 24.92 222.47 25.304C222.614 25.688 222.838 25.992 223.142 26.216C223.446 26.44 223.814 26.552 224.246 26.552C224.566 26.552 224.83 26.504 225.038 26.408C225.262 26.296 225.446 26.176 225.59 26.048C225.734 25.904 225.846 25.784 225.926 25.688C226.07 25.528 226.182 25.432 226.262 25.4C226.358 25.352 226.502 25.328 226.694 25.328H229.67C229.83 25.328 229.958 25.376 230.054 25.472C230.166 25.552 230.214 25.672 230.198 25.832C230.182 26.104 230.046 26.432 229.79 26.816C229.534 27.2 229.158 27.584 228.662 27.968C228.182 28.336 227.574 28.64 226.838 28.88C226.102 29.12 225.246 29.24 224.27 29.24ZM222.23 21.488H226.286V21.44C226.286 20.928 226.206 20.48 226.046 20.096C225.902 19.712 225.67 19.416 225.35 19.208C225.046 19 224.678 18.896 224.246 18.896C223.814 18.896 223.446 19 223.142 19.208C222.854 19.416 222.63 19.712 222.47 20.096C222.31 20.48 222.23 20.928 222.23 21.44V21.488ZM233.36 29C233.184 29 233.04 28.944 232.928 28.832C232.816 28.72 232.76 28.576 232.76 28.4V17.12C232.76 16.96 232.816 16.824 232.928 16.712C233.04 16.584 233.184 16.52 233.36 16.52H236.12C236.296 16.52 236.44 16.584 236.552 16.712C236.664 16.824 236.72 16.96 236.72 17.12V18.08C237.152 17.584 237.664 17.2 238.256 16.928C238.864 16.656 239.544 16.52 240.296 16.52H241.352C241.512 16.52 241.648 16.576 241.76 16.688C241.888 16.8 241.952 16.944 241.952 17.12V19.592C241.952 19.752 241.888 19.896 241.76 20.024C241.648 20.136 241.512 20.192 241.352 20.192H239.024C238.368 20.192 237.856 20.376 237.488 20.744C237.136 21.096 236.96 21.6 236.96 22.256V28.4C236.96 28.576 236.896 28.72 236.768 28.832C236.656 28.944 236.512 29 236.336 29H233.36Z" fill="#000113"/>
<g clip-path="url(#clip0_5_16236)">
<path d="M40.9089 18.416L23.6414 1.14843C22.1812 -0.311725 19.8187 -0.311725 18.3585 1.14843L1.09097 18.416C-0.369189 19.8762 -0.369189 22.2387 1.09097 23.6988L18.3585 40.9664C19.8187 42.4265 22.1812 42.4265 23.6414 40.9664L40.9089 23.6988C42.3609 22.2387 42.3609 19.8762 40.9089 18.416V18.416ZM28.5468 18.1945H28.3171V31.7953C28.3171 33.116 27.2425 34.1906 25.9218 34.1906H15.4792C14.1585 34.1906 13.0839 33.116 13.0839 31.7953V18.1945H5.36479L20.8195 2.99413L36.2742 18.1945H28.5468Z" fill="#000113"/>
<path d="M30.9749 15.4137H22.4273V30.4008C22.4273 31.5492 21.4921 32.4844 20.3437 32.4844C19.1953 32.4844 18.2601 31.5492 18.2601 30.4008V15.4137H10.5574L13.8386 11.8617H27.6937L30.9749 15.4137Z" fill="#000113"/>
</g>
<defs>
<clipPath id="clip0_5_16236">
<rect width="42" height="42" fill="white"/>
</clipPath>
</defs>
</svg>
