<svg width="171" height="42" viewBox="0 0 171 42" fill="none" xmlns="http://www.w3.org/2000/svg">
<path d="M57.28 29C57.12 29 56.976 28.944 56.848 28.832C56.736 28.72 56.68 28.576 56.68 28.4V12.8C56.68 12.624 56.736 12.48 56.848 12.368C56.976 12.256 57.12 12.2 57.28 12.2H59.872C60.128 12.2 60.32 12.272 60.448 12.416C60.592 12.544 60.68 12.648 60.712 12.728L64.936 20.312L69.16 12.728C69.208 12.648 69.288 12.544 69.4 12.416C69.528 12.272 69.728 12.2 70 12.2H72.568C72.744 12.2 72.888 12.256 73 12.368C73.128 12.48 73.192 12.624 73.192 12.8V28.4C73.192 28.576 73.128 28.72 73 28.832C72.888 28.944 72.744 29 72.568 29H69.712C69.536 29 69.384 28.944 69.256 28.832C69.144 28.72 69.088 28.576 69.088 28.4V19.4L66.376 24.416C66.312 24.56 66.216 24.688 66.088 24.8C65.96 24.912 65.784 24.968 65.56 24.968H64.312C64.088 24.968 63.912 24.912 63.784 24.8C63.656 24.688 63.552 24.56 63.472 24.416L60.76 19.4V28.4C60.76 28.576 60.704 28.72 60.592 28.832C60.48 28.944 60.336 29 60.16 29H57.28ZM76.8676 29C76.6916 29 76.5476 28.944 76.4356 28.832C76.3236 28.72 76.2676 28.576 76.2676 28.4V17.12C76.2676 16.96 76.3236 16.824 76.4356 16.712C76.5476 16.584 76.6916 16.52 76.8676 16.52H79.6276C79.8036 16.52 79.9476 16.584 80.0596 16.712C80.1716 16.824 80.2276 16.96 80.2276 17.12V18.08C80.6596 17.584 81.1716 17.2 81.7636 16.928C82.3716 16.656 83.0516 16.52 83.8036 16.52H84.8596C85.0196 16.52 85.1556 16.576 85.2676 16.688C85.3956 16.8 85.4596 16.944 85.4596 17.12V19.592C85.4596 19.752 85.3956 19.896 85.2676 20.024C85.1556 20.136 85.0196 20.192 84.8596 20.192H82.5316C81.8756 20.192 81.3636 20.376 80.9956 20.744C80.6436 21.096 80.4676 21.6 80.4676 22.256V28.4C80.4676 28.576 80.4036 28.72 80.2756 28.832C80.1636 28.944 80.0196 29 79.8436 29H76.8676ZM92.6472 29C92.4712 29 92.3272 28.944 92.2152 28.832C92.1032 28.72 92.0472 28.576 92.0472 28.4V12.8C92.0472 12.624 92.1032 12.48 92.2152 12.368C92.3272 12.256 92.4712 12.2 92.6472 12.2H95.7432C95.9192 12.2 96.0632 12.256 96.1752 12.368C96.2872 12.48 96.3432 12.624 96.3432 12.8V18.584H102.271V12.8C102.271 12.624 102.327 12.48 102.439 12.368C102.551 12.256 102.695 12.2 102.871 12.2H105.967C106.143 12.2 106.287 12.256 106.399 12.368C106.511 12.48 106.567 12.624 106.567 12.8V28.4C106.567 28.576 106.511 28.72 106.399 28.832C106.287 28.944 106.143 29 105.967 29H102.871C102.695 29 102.551 28.944 102.439 28.832C102.327 28.72 102.271 28.576 102.271 28.4V22.424H96.3432V28.4C96.3432 28.576 96.2872 28.72 96.1752 28.832C96.0632 28.944 95.9192 29 95.7432 29H92.6472ZM115.426 29.24C113.538 29.24 112.034 28.728 110.914 27.704C109.794 26.68 109.21 25.16 109.162 23.144C109.162 23.032 109.162 22.888 109.162 22.712C109.162 22.536 109.162 22.4 109.162 22.304C109.21 21.04 109.49 19.96 110.002 19.064C110.53 18.152 111.25 17.464 112.162 17C113.09 16.52 114.17 16.28 115.402 16.28C116.81 16.28 117.97 16.56 118.882 17.12C119.81 17.68 120.506 18.44 120.97 19.4C121.434 20.36 121.666 21.456 121.666 22.688V23.264C121.666 23.44 121.602 23.584 121.474 23.696C121.362 23.808 121.226 23.864 121.066 23.864H113.386C113.386 23.88 113.386 23.904 113.386 23.936C113.386 23.968 113.386 24 113.386 24.032C113.402 24.496 113.482 24.92 113.626 25.304C113.77 25.688 113.994 25.992 114.298 26.216C114.602 26.44 114.97 26.552 115.402 26.552C115.722 26.552 115.986 26.504 116.194 26.408C116.418 26.296 116.602 26.176 116.746 26.048C116.89 25.904 117.002 25.784 117.082 25.688C117.226 25.528 117.338 25.432 117.418 25.4C117.514 25.352 117.658 25.328 117.85 25.328H120.826C120.986 25.328 121.114 25.376 121.21 25.472C121.322 25.552 121.37 25.672 121.354 25.832C121.338 26.104 121.202 26.432 120.946 26.816C120.69 27.2 120.314 27.584 119.818 27.968C119.338 28.336 118.73 28.64 117.994 28.88C117.258 29.12 116.402 29.24 115.426 29.24ZM113.386 21.488H117.442V21.44C117.442 20.928 117.362 20.48 117.202 20.096C117.058 19.712 116.826 19.416 116.506 19.208C116.202 19 115.834 18.896 115.402 18.896C114.97 18.896 114.602 19 114.298 19.208C114.01 19.416 113.786 19.712 113.626 20.096C113.466 20.48 113.386 20.928 113.386 21.44V21.488ZM127.66 29.24C126.796 29.24 126.02 29.08 125.332 28.76C124.66 28.424 124.124 27.976 123.724 27.416C123.324 26.856 123.124 26.224 123.124 25.52C123.124 24.384 123.588 23.488 124.516 22.832C125.444 22.16 126.676 21.704 128.212 21.464L131.212 21.008V20.672C131.212 20.096 131.092 19.656 130.852 19.352C130.612 19.048 130.172 18.896 129.532 18.896C129.084 18.896 128.716 18.984 128.428 19.16C128.156 19.336 127.94 19.576 127.78 19.88C127.636 20.088 127.436 20.192 127.18 20.192H124.492C124.316 20.192 124.18 20.144 124.084 20.048C123.988 19.936 123.948 19.808 123.964 19.664C123.964 19.376 124.068 19.048 124.276 18.68C124.5 18.296 124.836 17.92 125.284 17.552C125.732 17.184 126.308 16.88 127.012 16.64C127.716 16.4 128.564 16.28 129.556 16.28C130.596 16.28 131.484 16.4 132.22 16.64C132.956 16.88 133.548 17.216 133.996 17.648C134.46 18.08 134.804 18.592 135.028 19.184C135.252 19.76 135.364 20.4 135.364 21.104V28.4C135.364 28.576 135.3 28.72 135.172 28.832C135.06 28.944 134.924 29 134.764 29H131.98C131.804 29 131.66 28.944 131.548 28.832C131.436 28.72 131.38 28.576 131.38 28.4V27.56C131.172 27.864 130.892 28.144 130.54 28.4C130.188 28.656 129.772 28.856 129.292 29C128.828 29.16 128.284 29.24 127.66 29.24ZM128.788 26.504C129.252 26.504 129.668 26.408 130.036 26.216C130.42 26.008 130.716 25.696 130.924 25.28C131.148 24.848 131.26 24.312 131.26 23.672V23.336L129.22 23.696C128.468 23.824 127.916 24.024 127.564 24.296C127.228 24.552 127.06 24.856 127.06 25.208C127.06 25.48 127.14 25.712 127.3 25.904C127.46 26.096 127.668 26.248 127.924 26.36C128.18 26.456 128.468 26.504 128.788 26.504ZM138.672 29C138.496 29 138.352 28.944 138.24 28.832C138.128 28.72 138.072 28.576 138.072 28.4V12.56C138.072 12.384 138.128 12.24 138.24 12.128C138.352 12.016 138.496 11.96 138.672 11.96H141.504C141.68 11.96 141.824 12.016 141.936 12.128C142.048 12.24 142.104 12.384 142.104 12.56V28.4C142.104 28.576 142.048 28.72 141.936 28.832C141.824 28.944 141.68 29 141.504 29H138.672ZM151.323 29C150.299 29 149.411 28.84 148.659 28.52C147.923 28.184 147.355 27.672 146.955 26.984C146.555 26.28 146.355 25.376 146.355 24.272V19.664H144.483C144.307 19.664 144.155 19.608 144.027 19.496C143.915 19.384 143.859 19.24 143.859 19.064V17.12C143.859 16.944 143.915 16.8 144.027 16.688C144.155 16.576 144.307 16.52 144.483 16.52H146.355V12.56C146.355 12.384 146.411 12.24 146.523 12.128C146.651 12.016 146.795 11.96 146.955 11.96H149.739C149.915 11.96 150.059 12.016 150.171 12.128C150.283 12.24 150.339 12.384 150.339 12.56V16.52H153.339C153.515 16.52 153.659 16.576 153.771 16.688C153.883 16.8 153.939 16.944 153.939 17.12V19.064C153.939 19.24 153.883 19.384 153.771 19.496C153.659 19.608 153.515 19.664 153.339 19.664H150.339V23.936C150.339 24.48 150.443 24.912 150.651 25.232C150.859 25.552 151.211 25.712 151.707 25.712H153.555C153.731 25.712 153.875 25.768 153.987 25.88C154.099 25.992 154.155 26.136 154.155 26.312V28.4C154.155 28.576 154.099 28.72 153.987 28.832C153.875 28.944 153.731 29 153.555 29H151.323ZM156.743 29C156.567 29 156.423 28.944 156.311 28.832C156.199 28.72 156.143 28.576 156.143 28.4V12.56C156.143 12.384 156.199 12.24 156.311 12.128C156.423 12.016 156.567 11.96 156.743 11.96H159.815C159.991 11.96 160.135 12.016 160.247 12.128C160.359 12.24 160.415 12.384 160.415 12.56V17.912C160.847 17.416 161.375 17.024 161.999 16.736C162.639 16.432 163.375 16.28 164.207 16.28C165.135 16.28 165.959 16.488 166.679 16.904C167.415 17.32 167.991 17.936 168.407 18.752C168.823 19.552 169.031 20.536 169.031 21.704V28.4C169.031 28.576 168.975 28.72 168.863 28.832C168.751 28.944 168.607 29 168.431 29H165.335C165.175 29 165.031 28.944 164.903 28.832C164.791 28.72 164.735 28.576 164.735 28.4V21.848C164.735 21.096 164.551 20.52 164.183 20.12C163.831 19.704 163.303 19.496 162.599 19.496C161.943 19.496 161.415 19.704 161.015 20.12C160.615 20.52 160.415 21.096 160.415 21.848V28.4C160.415 28.576 160.359 28.72 160.247 28.832C160.135 28.944 159.991 29 159.815 29H156.743Z" fill="#000113"/>
<g clip-path="url(#clip0_30_675)">
<path d="M40.9089 18.416L23.6414 1.14843C22.1812 -0.311725 19.8187 -0.311725 18.3585 1.14843L1.09097 18.416C-0.369189 19.8762 -0.369189 22.2387 1.09097 23.6988L18.3585 40.9664C19.8187 42.4265 22.1812 42.4265 23.6414 40.9664L40.9089 23.6988C42.3609 22.2387 42.3609 19.8762 40.9089 18.416ZM28.5468 18.1945H28.3171V31.7953C28.3171 33.116 27.2425 34.1906 25.9218 34.1906H15.4792C14.1585 34.1906 13.0839 33.116 13.0839 31.7953V18.1945H5.36479L20.8195 2.99413L36.2742 18.1945H28.5468Z" fill="#000113"/>
<path d="M30.9749 15.4137H22.4273V30.4008C22.4273 31.5492 21.4921 32.4844 20.3437 32.4844C19.1953 32.4844 18.2601 31.5492 18.2601 30.4008V15.4137H10.5574L13.8386 11.8617H27.6937L30.9749 15.4137Z" fill="#000113"/>
</g>
<defs>
<clipPath id="clip0_30_675">
<rect width="42" height="42" fill="white"/>
</clipPath>
</defs>
</svg>
