<svg width="22" height="22" viewBox="0 0 22 22" fill="none" xmlns="http://www.w3.org/2000/svg">
<path d="M12.7157 2.42135C14.6109 0.526215 17.6835 0.526216 19.5786 2.42135C21.4738 4.31649 21.4738 7.38912 19.5786 9.28426L9.28427 19.5786C7.38913 21.4737 4.3165 21.4737 2.42136 19.5786C0.526215 17.6835 0.526215 14.6108 2.42136 12.7157L12.7157 2.42135Z" fill="#F1E5A3"/>
<path fill-rule="evenodd" clip-rule="evenodd" d="M20.222 9.92764L9.92768 20.222C7.67719 22.4725 4.02844 22.4725 1.77796 20.222C-0.472517 17.9715 -0.472517 14.3228 1.77796 12.0723L12.0723 1.77795C14.3228 -0.472531 17.9716 -0.472531 20.222 1.77795C22.4725 4.02842 22.4725 7.67717 20.222 9.92764ZM19.5786 2.42134C17.6835 0.526204 14.6109 0.526204 12.7157 2.42134L2.42136 12.7157C0.52622 14.6108 0.52622 17.6835 2.42136 19.5786C4.3165 21.4737 7.38914 21.4737 9.28428 19.5786L19.5786 9.28425C21.4738 7.38911 21.4738 4.31648 19.5786 2.42134Z" fill="#233FC5"/>
<path fill-rule="evenodd" clip-rule="evenodd" d="M2.51999 19.6746C4.42165 21.4732 7.42165 21.4412 9.28426 19.5786L19.5786 9.28427C21.4738 7.38913 21.4738 4.3165 19.5786 2.42137C19.1434 1.98613 18.6461 1.65085 18.1151 1.41553C18.1484 1.44695 18.1812 1.47893 18.2138 1.51146C20.1089 3.4066 20.1089 6.47923 18.2138 8.37437L7.9194 18.6687C6.4595 20.1286 4.30084 20.4639 2.51999 19.6746Z" fill="#CDBE68"/>
<path d="M2.42142 12.7157C0.526276 14.6109 0.526276 17.6835 2.42142 19.5787C4.31656 21.4738 7.38919 21.4738 9.28433 19.5787L14.4315 14.4315L7.5686 7.56857L2.42142 12.7157Z" fill="#3E5DF1"/>
<path fill-rule="evenodd" clip-rule="evenodd" d="M9.28429 19.5786C7.42168 21.4412 4.42168 21.4732 2.52002 19.6746C4.30087 20.4639 6.45953 20.1286 7.91943 18.6687L13.2941 13.2941L14.4315 14.4314L9.28429 19.5786Z" fill="#2F4DDC"/>
<path d="M10.5884 16.378C10.5884 16.7548 10.2828 17.0604 9.90595 17.0604C9.52906 17.0604 9.22353 16.7548 9.22353 16.378C9.22353 16.0011 9.52906 15.6955 9.90595 15.6955C10.2828 15.6955 10.5884 16.0011 10.5884 16.378Z" fill="#233FC5"/>
<path d="M8.47324 18.675C8.47324 19.154 8.08496 19.5422 7.60599 19.5422C7.12702 19.5422 6.73874 19.154 6.73874 18.675C6.73874 18.196 7.12702 17.8077 7.60599 17.8077C8.08496 17.8077 8.47324 18.196 8.47324 18.675Z" fill="#233FC5"/>
<path d="M8.47322 16.5324C8.47322 16.824 8.23684 17.0604 7.94526 17.0604C7.65367 17.0604 7.4173 16.824 7.4173 16.5324C7.4173 16.2408 7.65367 16.0045 7.94526 16.0045C8.23684 16.0045 8.47322 16.2408 8.47322 16.5324Z" fill="#233FC5"/>
<path d="M6.02786 19.5422C6.02786 19.8338 5.79149 20.0702 5.4999 20.0702C5.20832 20.0702 4.97194 19.8338 4.97194 19.5422C4.97194 19.2507 5.20832 19.0143 5.4999 19.0143C5.79149 19.0143 6.02786 19.2507 6.02786 19.5422Z" fill="#233FC5"/>
<path d="M6.2269 17.7149C6.2269 18.0065 5.99052 18.2428 5.69894 18.2428C5.40735 18.2428 5.17097 18.0065 5.17097 17.7149C5.17097 17.4233 5.40735 17.1869 5.69894 17.1869C5.99052 17.1869 6.2269 17.4233 6.2269 17.7149Z" fill="#233FC5"/>
<path d="M4.32179 18.4863C4.32179 18.7779 4.08542 19.0143 3.79383 19.0143C3.50225 19.0143 3.26587 18.7779 3.26587 18.4863C3.26587 18.1948 3.50225 17.9584 3.79383 17.9584C4.08542 17.9584 4.32179 18.1948 4.32179 18.4863Z" fill="#233FC5"/>
<path d="M12.3399 15.1676C12.3399 15.4592 12.1035 15.6955 11.812 15.6955C11.5204 15.6955 11.284 15.4592 11.284 15.1676C11.284 14.876 11.5204 14.6396 11.812 14.6396C12.1035 14.6396 12.3399 14.876 12.3399 15.1676Z" fill="#233FC5"/>
<path fill-rule="evenodd" clip-rule="evenodd" d="M15.7535 2.63834C16.1001 3.00224 16.086 3.57818 15.7221 3.92475L10.9451 8.47426C10.5812 8.82083 10.0053 8.80678 9.65872 8.44288C9.31215 8.07898 9.3262 7.50304 9.6901 7.15647L14.4671 2.60697C14.831 2.2604 15.4069 2.27444 15.7535 2.63834Z" fill="#FBF2C2"/>
<path fill-rule="evenodd" clip-rule="evenodd" d="M15.75 2.63471C16.0986 2.99669 16.0877 3.57271 15.7258 3.92128L14.1903 5.39987C13.8283 5.74844 13.2523 5.73757 12.9037 5.37559C12.5552 5.01361 12.566 4.4376 12.928 4.08903L14.4635 2.61044C14.8254 2.26187 15.4015 2.27274 15.75 2.63471Z" fill="white"/>
</svg>
